<?xml version="1.0" encoding="utf-8"?>
<!-- Generator: Adobe Illustrator 28.1.0, SVG Export Plug-In . SVG Version: 6.00 Build 0)  -->
<svg version="1.1" id="Calque_1" xmlns="http://www.w3.org/2000/svg" xmlns:xlink="http://www.w3.org/1999/xlink" x="0px" y="0px"
	 viewBox="0 0 360 360" style="enable-background:new 0 0 360 360;" xml:space="preserve">
<style type="text/css">
	.st0{fill:#00426B;}
	.st1{fill:#FFFFFF;}
	.st2{fill:#64BCFE;}
</style>
<circle class="st0" cx="180" cy="180" r="140"/>
<path class="st1" d="M306.5,180c-22.5,47.3-70.7,80-126.5,80S75.9,227.3,53.5,180c22.5-47.3,70.7-80,126.5-80S284.1,132.7,306.5,180
	z"/>
<path class="st2" d="M221.7,180c0,29.4-17,54.9-41.7,67.2c-24.7-12.3-41.7-37.7-41.7-67.2s17-54.9,41.7-67.2
	C204.7,125.1,221.7,150.6,221.7,180z"/>
<path class="st0" d="M207.5,180c0,19.4-11.2,36.2-27.5,44.3c-16.3-8.1-27.5-24.9-27.5-44.3s11.2-36.2,27.5-44.3
	C196.3,143.8,207.5,160.6,207.5,180z"/>
</svg>
