<?xml version="1.0" encoding="UTF-8"?><svg id="Calque_1" xmlns="http://www.w3.org/2000/svg" viewBox="0 0 360 360"><circle cx="90" cy="90" r="90" style="fill:#ff5d54; stroke-width:0px;"/><path d="M270,360v-180c-49.71,0-90,40.29-90,90s40.29,90,90,90Z" style="fill:#ff5d54; stroke-width:0px;"/><path d="M90,180C40.29,180,0,220.29,0,270s40.29,90,90,90,90-40.29,90-90-40.29-90-90-90ZM89.37,349.37c-44.18,0-80-35.82-80-80s35.82-80,80-80,80,35.82,80,80-35.82,80-80,80Z" style="fill:#ff5d54; stroke-width:0px;"/><path d="M360,90c0-49.71-40.29-90-90-90v180c49.71,0,90-40.29,90-90Z" style="fill:#ff5d54; stroke-width:0px;"/></svg>