<?xml version="1.0" encoding="UTF-8"?><svg id="Calque_1" xmlns="http://www.w3.org/2000/svg" viewBox="0 0 360 360"><path d="M0,0h90c49.67,0,90,40.33,90,90h0c0,49.67-40.33,90-90,90H0V0h0Z" style="fill:#603ec5; stroke-width:0px;"/><path d="M180,0h180v90c0,49.67-40.33,90-90,90h0c-49.67,0-90-40.33-90-90V0h0Z" style="fill:#603ec5; stroke-width:0px;"/><path d="M90,180h0c49.67,0,90,40.33,90,90v90H0v-90c0-49.67,40.33-90,90-90Z" style="fill:#603ec5; stroke-width:0px;"/><path d="M270,180h90v180h-90c-49.67,0-90-40.33-90-90h0c0-49.67,40.33-90,90-90Z" style="fill:#603ec5; stroke-width:0px;"/></svg>