<?xml version="1.0" encoding="utf-8"?>
<!-- Generator: Adobe Illustrator 28.1.0, SVG Export Plug-In . SVG Version: 6.00 Build 0)  -->
<svg version="1.1" id="Calque_1" xmlns="http://www.w3.org/2000/svg" xmlns:xlink="http://www.w3.org/1999/xlink" x="0px" y="0px"
	 viewBox="0 0 360 360" style="enable-background:new 0 0 360 360;" xml:space="preserve">
<style type="text/css">
	.st0{fill:#00426B;}
</style>
<path class="st0" d="M336,180c0,17.1-9.4,32.2-24,41.8V252c0,39.7-32.3,72-72,72H96v36H24v-36c0-39.7,32.3-72,72-72h144v-30.2
	c-14.6-9.5-24-24.7-24-41.8s9.4-32.2,24-41.8V108H96c-39.7,0-72-32.3-72-72V0h72v36h144c39.7,0,72,32.3,72,72v30.2
	C326.6,147.8,336,162.9,336,180z"/>
</svg>
