<?xml version="1.0" encoding="utf-8"?>
<!-- Generator: Adobe Illustrator 28.1.0, SVG Export Plug-In . SVG Version: 6.00 Build 0)  -->
<svg version="1.1" id="Calque_1" xmlns="http://www.w3.org/2000/svg" xmlns:xlink="http://www.w3.org/1999/xlink" x="0px" y="0px"
	 viewBox="0 0 360 360" style="enable-background:new 0 0 360 360;" xml:space="preserve">
<style type="text/css">
	.st0{fill:#64BCFE;}
</style>
<path class="st0" d="M210.2,175.2L43.5,342H18v-25.5l166.8-166.8c3.9,4.6,8,9,12.2,13.2S205.7,171.3,210.2,175.2z"/>
<path class="st0" d="M265,210.1L192.5,342h-41.1l82.1-149.3C243.5,199.3,254,205.1,265,210.1z"/>
<path class="st0" d="M167.3,126.5L18,208.5v-41.1l131.9-72.5C154.9,105.9,160.7,116.5,167.3,126.5L167.3,126.5z"/>
<path class="st0" d="M180,0h180v180l0,0C260.7,180,180,99.3,180,0L180,0z"/>
</svg>
