<?xml version="1.0" encoding="utf-8"?>
<!-- Generator: Adobe Illustrator 28.1.0, SVG Export Plug-In . SVG Version: 6.00 Build 0)  -->
<svg version="1.1" id="Calque_1" xmlns="http://www.w3.org/2000/svg" xmlns:xlink="http://www.w3.org/1999/xlink" x="0px" y="0px"
	 viewBox="0 0 360 360" style="enable-background:new 0 0 360 360;" xml:space="preserve">
<style type="text/css">
	.st0{fill:#00426B;}
</style>
<path class="st0" d="M192.6,225.5v29.1c-4.1,0.7-8.3,1.1-12.6,1.1s-8.5-0.4-12.6-1.1v-29.1c4,1.1,8.2,1.7,12.6,1.7
	S188.6,226.6,192.6,225.5z"/>
<path class="st0" d="M192.6,285.2v30.4c-4.1,0.4-8.4,0.6-12.6,0.6s-8.5-0.2-12.6-0.6v-30.4c4.1,0.5,8.4,0.7,12.6,0.7
	S188.5,285.6,192.6,285.2L192.6,285.2z"/>
<circle class="st0" cx="180" cy="180" r="15.1"/>
<path class="st0" d="M180,43.8c4.2,0,8.5,0.2,12.6,0.6v30.4c-4.1-0.5-8.4-0.7-12.6-0.7s-8.5,0.2-12.6,0.7V44.4
	C171.5,44,175.7,43.8,180,43.8z"/>
<path class="st0" d="M180,104.4c4.3,0,8.5,0.4,12.6,1.1v29c-4-1.1-8.2-1.7-12.6-1.7s-8.6,0.6-12.6,1.7v-29.1
	C171.5,104.7,175.7,104.4,180,104.4z"/>
<path class="st0" d="M254.6,167.4c0.7,4.1,1.1,8.3,1.1,12.6s-0.4,8.5-1.1,12.6h-29.1c1.1-4,1.7-8.2,1.7-12.6s-0.6-8.6-1.7-12.6
	H254.6z"/>
<path class="st0" d="M315.6,167.4c0.4,4.2,0.6,8.4,0.6,12.6s-0.2,8.5-0.6,12.6h-30.4c0.5-4.1,0.7-8.4,0.7-12.6s-0.2-8.5-0.7-12.6
	H315.6z"/>
<path class="st0" d="M74.1,180c0,4.3,0.2,8.5,0.7,12.6H44.4c-0.4-4.1-0.6-8.4-0.6-12.6s0.2-8.5,0.6-12.6h30.4
	C74.4,171.5,74.1,175.7,74.1,180z"/>
<path class="st0" d="M132.8,180c0,4.4,0.6,8.6,1.7,12.6h-29.1c-0.7-4.1-1.1-8.3-1.1-12.6s0.3-8.5,1.1-12.6h29.1
	C133.4,171.4,132.8,175.6,132.8,180z"/>
<path class="st0" d="M221.1,203.3l20.5,20.5c-2.4,3.4-5.1,6.6-8.2,9.7c-3,3-6.3,5.8-9.7,8.2l-20.5-20.5c3.6-2.1,7-4.6,10.1-7.7
	C216.5,210.3,219.1,206.9,221.1,203.3L221.1,203.3z"/>
<path class="st0" d="M263.3,245.4l21.5,21.5c-2.7,3.2-5.5,6.3-8.5,9.3c-3,3-6.1,5.9-9.3,8.5l-21.5-21.5c3.3-2.6,6.4-5.4,9.4-8.4
	C257.9,251.9,260.7,248.7,263.3,245.4L263.3,245.4z"/>
<path class="st0" d="M83.7,83.7c3-3,6.1-5.9,9.3-8.5l21.5,21.5c-3.3,2.6-6.4,5.4-9.4,8.4c-3,3-5.8,6.2-8.4,9.4L75.2,93.1
	C77.9,89.8,80.7,86.7,83.7,83.7L83.7,83.7z"/>
<path class="st0" d="M126.5,126.5c3-3,6.3-5.8,9.7-8.2l20.5,20.5c-3.6,2-7,4.6-10.1,7.7s-5.7,6.5-7.7,10.1l-20.5-20.5
	C120.7,132.8,123.5,129.6,126.5,126.5z"/>
<path class="st0" d="M223.8,118.3c3.4,2.4,6.6,5.1,9.7,8.2c3,3,5.8,6.3,8.2,9.7l-20.5,20.5c-2.1-3.6-4.6-7-7.7-10.1
	s-6.5-5.7-10.1-7.7L223.8,118.3L223.8,118.3z"/>
<path class="st0" d="M267,75.2c3.2,2.7,6.3,5.5,9.3,8.5s5.9,6.1,8.5,9.3l-21.5,21.5c-2.6-3.3-5.4-6.4-8.4-9.4c-3-3-6.2-5.8-9.4-8.4
	L267,75.2L267,75.2z"/>
<path class="st0" d="M105.1,254.9c3,3,6.2,5.8,9.4,8.4L93,284.8c-3.2-2.7-6.3-5.5-9.3-8.5s-5.8-6.1-8.5-9.3l21.5-21.5
	C99.3,248.7,102.1,251.9,105.1,254.9L105.1,254.9z"/>
<path class="st0" d="M146.6,213.4c3.1,3.1,6.5,5.7,10.1,7.7l-20.5,20.5c-3.4-2.4-6.6-5.1-9.7-8.2c-3-3-5.8-6.3-8.2-9.7l20.5-20.5
	C140.9,206.9,143.5,210.3,146.6,213.4z"/>
<path class="st0" d="M180,70c-60.8,0-110,49.2-110,110s49.2,110,110,110s110-49.2,110-110S240.7,70,180,70z M180,274
	c-51.9,0-94-42.1-94-94s42.1-94,94-94s94,42.1,94,94S231.9,274,180,274z"/>
</svg>
