<?xml version="1.0" encoding="UTF-8"?><svg id="Calque_1" xmlns="http://www.w3.org/2000/svg" viewBox="0 0 360 360"><rect width="360" height="44" style="fill:#00426b; stroke-width:0px;"/><rect y="316" width="360" height="44" style="fill:#00426b; stroke-width:0px;"/><rect x="-76" y="150" width="272" height="60" transform="translate(-120 240) rotate(-90)" style="fill:#603ec5; stroke-width:0px;"/><rect x="44" y="150" width="272" height="60" transform="translate(0 360) rotate(-90)" style="fill:#603ec5; stroke-width:0px;"/><rect x="164" y="150" width="272" height="60" transform="translate(120 480) rotate(-90)" style="fill:#603ec5; stroke-width:0px;"/><rect x="57" y="11" width="6" height="72" transform="translate(13 107) rotate(-90)" style="fill:#00426b; stroke-width:0px;"/><rect x="57" y="277" width="6" height="72" transform="translate(-253 373) rotate(-90)" style="fill:#00426b; stroke-width:0px;"/><rect x="177" y="11" width="6" height="72" transform="translate(133 227) rotate(-90)" style="fill:#00426b; stroke-width:0px;"/><rect x="177" y="277" width="6" height="72" transform="translate(-133 493) rotate(-90)" style="fill:#00426b; stroke-width:0px;"/><rect x="297" y="11" width="6" height="72" transform="translate(253 347) rotate(-90)" style="fill:#00426b; stroke-width:0px;"/><rect x="297" y="277" width="6" height="72" transform="translate(-13 613) rotate(-90)" style="fill:#00426b; stroke-width:0px;"/></svg>