<?xml version="1.0" encoding="utf-8"?>
<!-- Generator: Adobe Illustrator 28.1.0, SVG Export Plug-In . SVG Version: 6.00 Build 0)  -->
<svg version="1.1" id="Calque_1" xmlns="http://www.w3.org/2000/svg" xmlns:xlink="http://www.w3.org/1999/xlink" x="0px" y="0px"
	 viewBox="0 0 360 360" style="enable-background:new 0 0 360 360;" xml:space="preserve">
<style type="text/css">
	.st0{fill:#FF5D54;}
	.st1{fill:#603EC5;}
	.st2{fill:#64BCFE;}
</style>
<path class="st0" d="M230,130c-55.2,0-100,44.8-100,100c-55.2,0-100-44.8-100-100S74.8,30,130,30S230,74.8,230,130z"/>
<path class="st1" d="M230,130c0,55.2-44.8,100-100,100C130,174.8,174.8,130,230,130z"/>
<path class="st2" d="M330,230c0,55.2-44.8,100-100,100s-100-44.8-100-100c55.2,0,100-44.8,100-100C285.2,130,330,174.8,330,230z"/>
</svg>
