<?xml version="1.0" encoding="UTF-8"?><svg id="Calque_1" xmlns="http://www.w3.org/2000/svg" viewBox="0 0 356.3 360"><path d="M356.3,154.11h-124.01c-9.66-20.18-30.27-34.11-54.14-34.11s-44.48,13.93-54.14,34.11H0C12.55,66.96,87.53,0,178.15,0s165.6,66.96,178.15,154.11Z" style="fill:#ff5d54; stroke-width:0px;"/><path d="M356.3,205.89c-12.55,87.15-87.53,154.11-178.15,154.11S12.55,293.04,0,205.89h124.01c9.66,20.18,30.27,34.11,54.14,34.11s44.48-13.93,54.14-34.11h124.01Z" style="fill:#64bcfe; stroke-width:0px;"/><path d="M238.15,180c0,9.27-2.1,18.06-5.86,25.89-9.66,20.18-30.27,34.11-54.14,34.11s-44.48-13.93-54.14-34.11c-3.76-7.83-5.86-16.62-5.86-25.89s2.1-18.06,5.86-25.89c9.66-20.18,30.27-34.11,54.14-34.11s44.48,13.93,54.14,34.11c3.76,7.83,5.86,16.62,5.86,25.89Z" style="fill:#00426b; stroke-width:0px;"/></svg>