<?xml version="1.0" encoding="utf-8"?>
<!-- Generator: Adobe Illustrator 28.1.0, SVG Export Plug-In . SVG Version: 6.00 Build 0)  -->
<svg version="1.1" id="Calque_1" xmlns="http://www.w3.org/2000/svg" xmlns:xlink="http://www.w3.org/1999/xlink" x="0px" y="0px"
	 viewBox="0 0 360 360" style="enable-background:new 0 0 360 360;" xml:space="preserve">
<style type="text/css">
	.st0{fill:#FF5D54;}
	.st1{fill:#00426B;}
	.st2{fill:#64BCFE;}
	.st3{fill:#FFFFFF;}
	.st4{fill:#603EC5;}
</style>
<path class="st0" d="M280,127.5c0,4.3-0.3,8.6-0.8,12.7c-33.5-14.1-71.3-8.5-99.2,12.7c-27.9-21.2-65.7-26.8-99.2-12.7
	c-0.5-4.2-0.8-8.4-0.8-12.7c0-55.2,44.8-100,100-100S280,72.3,280,127.5z"/>
<path class="st1" d="M180,312c-3.3,2.5-6.9,4.9-10.6,7.1c-47.8,27.6-109,11.2-136.6-36.6c-27.6-47.8-11.2-109,36.6-136.6
	c3.7-2.2,7.5-4,11.4-5.7c4.6,36,28.3,66,60.6,79.5C137,254.5,151.1,290.1,180,312z"/>
<path class="st2" d="M327.2,282.5c-27.6,47.8-88.8,64.2-136.6,36.6c-3.7-2.2-7.3-4.5-10.6-7.1c28.9-22,43-57.5,38.6-92.3
	c32.3-13.5,56-43.5,60.6-79.5c3.9,1.6,7.7,3.5,11.4,5.7C338.5,173.5,354.8,234.7,327.2,282.5L327.2,282.5L327.2,282.5z"/>
<path class="st3" d="M180,152.9c-10.2,7.8-19.1,17.7-26,29.6s-11,24.5-12.6,37.3c-32.3-13.5-56-43.5-60.6-79.5
	C114.3,126.2,152.1,131.7,180,152.9z"/>
<path class="st3" d="M180,312c-28.9-22-43-57.5-38.6-92.3c11.9,5,24.9,7.7,38.6,7.7s26.7-2.7,38.6-7.7
	C223,254.5,208.9,290.1,180,312z"/>
<path class="st3" d="M279.2,140.2c-4.6,36-28.3,66-60.6,79.5c-1.6-12.8-5.8-25.4-12.6-37.3c-6.8-11.9-15.7-21.8-26-29.6
	C207.9,131.7,245.7,126.2,279.2,140.2z"/>
<path class="st4" d="M218.6,219.8c-11.9,5-24.9,7.7-38.6,7.7s-26.7-2.7-38.6-7.7c1.6-12.8,5.8-25.4,12.6-37.3
	c6.8-11.9,15.7-21.8,26-29.6c10.2,7.8,19.1,17.7,26,29.6S217,207,218.6,219.8z"/>
</svg>
