<?xml version="1.0" encoding="utf-8"?>
<!-- Generator: Adobe Illustrator 28.1.0, SVG Export Plug-In . SVG Version: 6.00 Build 0)  -->
<svg version="1.1" id="Calque_1" xmlns="http://www.w3.org/2000/svg" xmlns:xlink="http://www.w3.org/1999/xlink" x="0px" y="0px"
	 viewBox="0 0 2000 2000" style="enable-background:new 0 0 2000 2000;" xml:space="preserve">
<style type="text/css">
	.st0{fill:#987654;}
	.st1{fill:#2A1300;}
	.st2{fill:#4A2100;}
	.st3{fill:#662D00;}
</style>
<path class="st0" d="M1207.2,1035.5v41.4c0,60.3-24.3,115-63.6,154.5c-39.3,39.6-93.6,64-153.6,64V817c92.7,0,171.8,58.4,203,140.5
	c0.3,0.7,0.5,1.3,0.8,2C1202.4,983.2,1207.2,1008.8,1207.2,1035.5z"/>
<circle class="st1" cx="1271.8" cy="628" r="54.1"/>
<path class="st2" d="M1207.2,1035.5v8.3H990v251.7h-84.2v-251.7H791.9v-84.2h113.9V504.1H990v455.5h203.7
	C1202.4,983.2,1207.2,1008.8,1207.2,1035.5z"/>
<rect x="1493.3" y="809.3" class="st3" width="84.2" height="57.4"/>
<path class="st2" d="M1426.3,816v278.5c0,101.6-78.1,185.1-177.5,193.5l-10.8,10.8l32.4,32.4l-14.9,14.9l-36.3,36.4h-16.6
	l-55.7-55.7l-28-28l59.6-59.6l0.1,0.1l34.8-34.8h3.3c41.3,0,77.9-19.9,100.8-50.7c15.6-20.9,24.8-46.9,24.8-75V816H1426.3
	L1426.3,816z"/>
<circle class="st3" cx="990" cy="504.1" r="116.7"/>
<path class="st2" d="M1649.3,630.3L1649.3,630.3L1649.3,630.3V705h0c0,0.2,0,0.3,0,0.5c0,61.6-49.9,111.5-111.5,111.5
	c-0.8,0-1.6,0-2.4,0v0H990v-84.2h544.6c16.9,0,30.5-13.7,30.5-30.5v-20.3l-266-135.5h-126.4l-30-84.2h176.1"/>
<path class="st2" d="M874.2,1227v119.1h-22.4l-36.3,36.4h-16.6l-55.7-55.7l-54.6-49.6c17.2,6.7,35.9,9.3,54.6,7.2
	c13.1-1.4,26.2-5.2,38.8-11.3l86.4-42.7C870.3,1229.3,872.3,1228.2,874.2,1227z"/>
<path class="st1" d="M989.8,1382.5H772.1c2.5-6.2,5.5-12.1,9-17.8c15.2-24.7,39.2-43.3,67.7-51.4c10.2-2.9,21.1-4.5,32.3-4.5
	C930.3,1308.8,972.6,1339.3,989.8,1382.5L989.8,1382.5z"/>
<path class="st1" d="M1393.5,1382.5h-217.7c2.5-6.2,5.5-12.1,8.9-17.8c15.2-24.7,39.2-43.3,67.7-51.4c10.2-2.9,21.1-4.5,32.3-4.5
	C1334,1308.8,1376.2,1339.3,1393.5,1382.5L1393.5,1382.5z"/>
<circle class="st3" cx="990" cy="504.1" r="116.7"/>
<path class="st1" d="M813.8,1224.6c-85.6,0-154.9-69.4-154.9-154.9V671.6l-92.7-187.5c-23.7-48-72-75.8-122.1-75.8
	c-20.3,0-40.8,4.5-60.2,14.1c-67.4,33.3-95,115-61.7,182.3l304.6,615.8c0,0,0,0,0,0c0.1,0.3,0.3,0.6,0.4,0.8
	c13.4,26.5,35.6,45.7,61.3,55.7c17.2,6.7,35.9,9.3,54.6,7.2c13.1-1.4,26.2-5.2,38.8-11.3l86.4-42.7c2.1-1,4-2.1,5.9-3.3v-2.4
	L813.8,1224.6L813.8,1224.6z M547.4,528.8l33.8,33.8l-33.8,33.8l-33.8-33.8L547.4,528.8z M503.4,451l33.8,33.8l-33.8,33.8
	l-33.8-33.8L503.4,451z M381.6,484.8l33.8-33.8l33.8,33.8l-33.8,33.8L381.6,484.8z M425.6,562.6l33.8-33.8l33.8,33.8l-33.8,33.8
	L425.6,562.6z M469.6,640.4l33.8-33.8l33.8,33.8l-33.8,33.8L469.6,640.4L469.6,640.4z M513.6,718.2l33.8-33.8l33.8,33.8l-33.8,33.8
	L513.6,718.2L513.6,718.2z M591.4,829.9L557.5,796l33.8-33.8l33.8,33.8L591.4,829.9z M591.4,674.2l-33.8-33.8l33.8-33.8l33.8,33.8
	L591.4,674.2z"/>
<g id="D">
	<path class="st1" d="M456.4,1574.4v122.3c0,12.5-2.1,24.6-5.9,35.8c-11,32.3-36.6,57.9-68.9,68.9c-11.2,3.8-23.3,5.9-35.8,5.9
		h-93.4v-74.8h91.6c20.8,0,37.7-16.9,37.7-37.7v-118.6c0-20.8-16.9-37.7-37.7-37.7h-91.6v-74.8h93.4c12.5,0,24.6,2.1,35.8,5.9
		c32.3,11,57.9,36.6,68.9,68.9C454.3,1549.8,456.4,1561.9,456.4,1574.4z"/>
	<rect x="177.5" y="1463.8" class="st1" width="74.8" height="343.5"/>
</g>
<g id="A">
	<path class="st1" d="M812,1574.4v71.3h-74.8v-81.4c0-14.2-11.5-25.8-25.8-25.8h-78.5c-14.2,0-25.8,11.5-25.8,25.8v81.4h-75.7v-71.3
		c0-12.5,2.1-24.6,5.9-35.8c11-32.3,36.6-57.9,68.9-68.9c11.2-3.8,23.3-5.9,35.8-5.9h59.3c12.5,0,24.6,2.1,35.8,5.9
		c32.3,11,57.9,36.6,68.9,68.9C809.9,1549.8,812,1561.9,812,1574.4z"/>
	<rect x="531.4" y="1720.6" class="st1" width="74.8" height="86.7"/>
	<rect x="737.2" y="1720.6" class="st1" width="74.8" height="86.7"/>
	<rect x="531.4" y="1645.8" class="st1" width="280.6" height="74.8"/>
</g>
<g id="I">
	<path class="st1" d="M1139.6,1463.8v36.6c0,21.1-17.1,38.3-38.3,38.3h-176c-21.1,0-38.3-17.1-38.3-38.3v-36.6H1139.6L1139.6,1463.8
		z"/>
	<path class="st1" d="M1139.6,1770.8v36.6H887v-36.6c0-21.1,17.1-38.3,38.3-38.3h176C1122.4,1732.5,1139.6,1749.6,1139.6,1770.8
		L1139.6,1770.8z"/>
	<rect x="975.5" y="1538.6" class="st1" width="74.8" height="193.9"/>
</g>
<g id="K">
	<rect x="1214.6" y="1673" class="st1" width="74.8" height="134.3"/>
	<rect x="1214.6" y="1463.8" class="st1" width="74.8" height="134.3"/>
	<polygon class="st1" points="1466.4,1463.8 1398.2,1598.1 1323.5,1598.1 1391.6,1463.8 	"/>
	<polygon class="st1" points="1466.4,1463.8 1398.3,1598.1 1398.2,1598.1 	"/>
	<polygon class="st1" points="1377.9,1638.1 1396,1673 1214.6,1673 1214.6,1598.1 1398.2,1598.1 	"/>
	<polygon class="st1" points="1466.1,1807.3 1391.2,1807.3 1323.2,1673 1396,1673 	"/>
	<polygon class="st1" points="1466.1,1807.3 1396,1673 1398,1673 	"/>
	<polygon class="st1" points="1466.1,1807.3 1396,1673 1398,1673 	"/>
	<polygon class="st1" points="1466.4,1463.8 1398.3,1598.1 1398.2,1598.1 	"/>
</g>
<g id="U">
	<path class="st1" d="M1579.7,1463.8h36.6v209.6h-74.8v-171.3C1541.4,1480.9,1558.5,1463.8,1579.7,1463.8L1579.7,1463.8z"/>
	<path class="st1" d="M1822,1502.1v171.3h-75.7v-209.6h37.4C1804.9,1463.8,1822,1480.9,1822,1502.1z"/>
	<path class="st1" d="M1822,1673.3v23.3c0,61.1-49.5,110.6-110.6,110.6H1652c-61.1,0-110.6-49.5-110.6-110.6v-23.3h74.8v8.1
		c0,28.2,22.8,51,51,51h28.1c28.2,0,51-22.8,51-51v-8.1H1822L1822,1673.3z"/>
</g>
</svg>
