<?xml version="1.0" encoding="utf-8"?>
<!-- Generator: Adobe Illustrator 28.1.0, SVG Export Plug-In . SVG Version: 6.00 Build 0)  -->
<svg version="1.1" id="Calque_1" xmlns="http://www.w3.org/2000/svg" xmlns:xlink="http://www.w3.org/1999/xlink" x="0px" y="0px"
	 viewBox="0 0 288 213.7" style="enable-background:new 0 0 288 213.7;" xml:space="preserve">
<style type="text/css">
	.st0{fill:#987654;}
	.st1{fill:#2A1300;}
	.st2{fill:#4A2100;}
	.st3{fill:#662D00;}
</style>
<path class="st0" d="M193.1,139.2v8.9c0,13-5.2,24.7-13.7,33.2s-20.1,13.7-33,13.7V92.3c19.9,0,36.9,12.5,43.6,30.2
	c0.1,0.1,0.1,0.3,0.2,0.4C192,128,193.1,133.5,193.1,139.2L193.1,139.2z"/>
<circle class="st1" cx="206.9" cy="51.7" r="11.6"/>
<path class="st2" d="M193.1,139.2v1.8h-46.6v54h-18.1v-54h-24.4v-18.1h24.4V25.1h18.1v97.8h43.7C192,128,193.1,133.4,193.1,139.2
	L193.1,139.2z"/>
<rect x="254.5" y="90.6" class="st3" width="18.1" height="12.3"/>
<path class="st2" d="M240.1,92.1v59.8c0,21.8-16.8,39.7-38.1,41.6l-2.3,2.3l6.9,6.9l-3.2,3.2l-7.8,7.8h-3.6l-12-12l-6-6l12.8-12.8
	l0,0l7.5-7.5h0.7c8.9,0,16.7-4.3,21.6-10.9c3.4-4.5,5.3-10.1,5.3-16.1V92L240.1,92.1L240.1,92.1z"/>
<circle class="st3" cx="146.4" cy="25.1" r="25.1"/>
<path class="st2" d="M288,52.2L288,52.2L288,52.2v16l0,0c0,0,0,0.1,0,0.1c0,13.2-10.7,23.9-23.9,23.9c-0.2,0-0.3,0-0.5,0l0,0H146.4
	V74.2h116.9c3.6,0,6.6-2.9,6.6-6.6v-4.4l-57.1-29.1h-27.1l-6.4-18.1h37.8"/>
<path class="st2" d="M121.6,180.3v25.6h-4.8l-7.8,7.8h-3.6l-12-12l-11.7-10.6c3.7,1.4,7.7,2,11.7,1.6c2.8-0.3,5.6-1.1,8.3-2.4
	l18.6-9.2C120.7,180.8,121.2,180.6,121.6,180.3L121.6,180.3z"/>
<path class="st1" d="M146.4,213.7H99.7c0.5-1.3,1.2-2.6,1.9-3.8c3.3-5.3,8.4-9.3,14.5-11c2.2-0.6,4.5-1,6.9-1
	C133.6,197.9,142.7,204.4,146.4,213.7L146.4,213.7z"/>
<path class="st1" d="M233.1,213.7h-46.8c0.5-1.3,1.2-2.6,1.9-3.8c3.3-5.3,8.4-9.3,14.5-11c2.2-0.6,4.5-1,6.9-1
	C220.3,197.9,229.4,204.4,233.1,213.7L233.1,213.7L233.1,213.7z"/>
<circle class="st3" cx="146.4" cy="25.1" r="25.1"/>
<path class="st1" d="M108.6,179.8c-18.4,0-33.3-14.9-33.3-33.3V61L55.4,20.8C50.3,10.5,40,4.5,29.2,4.5c-4.4,0-8.8,1-12.9,3
	C1.8,14.7-4.1,32.2,3,46.7l65.4,132.2l0,0c0,0.1,0.1,0.1,0.1,0.2c2.9,5.7,7.7,9.8,13.2,11.9c3.7,1.4,7.7,2,11.7,1.6
	c2.8-0.3,5.6-1.1,8.3-2.4l18.6-9.2c0.4-0.2,0.9-0.5,1.3-0.7v-0.5L108.6,179.8L108.6,179.8z M51.4,30.4l7.3,7.3l-7.3,7.3l-7.3-7.3
	C44.1,37.6,51.4,30.4,51.4,30.4z M42,13.7l7.3,7.3L42,28.2l-7.3-7.3L42,13.7z M15.8,20.9l7.3-7.3l7.3,7.3l-7.3,7.3
	C23.1,28.2,15.8,20.9,15.8,20.9z M25.2,37.6l7.3-7.3l7.3,7.3l-7.3,7.3C32.5,44.9,25.3,37.6,25.2,37.6z M34.7,54.3l7.3-7.3l7.3,7.3
	L42,61.6L34.7,54.3C34.7,54.3,34.7,54.3,34.7,54.3z M44.1,71.1l7.3-7.3l7.3,7.3l-7.3,7.3L44.1,71.1L44.1,71.1z M60.8,95l-7.3-7.3
	l7.3-7.3l7.3,7.3L60.8,95z M60.8,61.6l-7.3-7.3l7.3-7.3l7.3,7.3L60.8,61.6z"/>
</svg>
