<?xml version="1.0" encoding="utf-8"?>
<!-- Generator: Adobe Illustrator 28.1.0, SVG Export Plug-In . SVG Version: 6.00 Build 0)  -->
<svg version="1.1" id="Calque_1" xmlns="http://www.w3.org/2000/svg" xmlns:xlink="http://www.w3.org/1999/xlink" x="0px" y="0px"
	 viewBox="0 0 1001.5 213.7" style="enable-background:new 0 0 1001.5 213.7;" xml:space="preserve">
<style type="text/css">
	.st0{fill:#987654;}
	.st1{fill:#2A1300;}
	.st2{fill:#4A2100;}
	.st3{fill:#662D00;}
</style>
<path class="st0" d="M193.1,139.2v8.9c0,13-5.2,24.7-13.7,33.2s-20.1,13.7-33,13.7V92.3c19.9,0,36.9,12.5,43.6,30.2
	c0.1,0.1,0.1,0.3,0.2,0.4C192,128,193.1,133.5,193.1,139.2L193.1,139.2L193.1,139.2z"/>
<circle class="st1" cx="206.9" cy="51.7" r="11.6"/>
<path class="st2" d="M193.1,139.2v1.8h-46.6v54h-18.1v-54h-24.4v-18.1h24.4V25.1h18.1v97.8h43.7C192,128,193.1,133.4,193.1,139.2
	L193.1,139.2L193.1,139.2z"/>
<rect x="254.5" y="90.6" class="st3" width="18.1" height="12.3"/>
<path class="st2" d="M240.1,92.1v59.8c0,21.8-16.8,39.7-38.1,41.6l-2.3,2.3l6.9,6.9l-3.2,3.2l-7.8,7.8h-3.6l-12-12l-6-6l12.8-12.8
	l0,0l7.5-7.5h0.7c8.9,0,16.7-4.3,21.6-10.9c3.4-4.5,5.3-10.1,5.3-16.1V92L240.1,92.1L240.1,92.1z"/>
<circle class="st3" cx="146.4" cy="25.1" r="25.1"/>
<path class="st2" d="M288,52.2L288,52.2v16l0,0v0.1c0,13.2-10.7,23.9-23.9,23.9H146.4V74.2h116.9c3.6,0,6.6-2.9,6.6-6.6v-4.4
	l-57.1-29.1h-27.1l-6.4-18.1h37.8"/>
<path class="st2" d="M121.6,180.3v25.6h-4.8l-7.8,7.8h-3.6l-12-12l-11.7-10.6c3.7,1.4,7.7,2,11.7,1.6c2.8-0.3,5.6-1.1,8.3-2.4
	l18.6-9.2C120.7,180.8,121.2,180.6,121.6,180.3L121.6,180.3L121.6,180.3z"/>
<path class="st1" d="M146.4,213.7H99.7c0.5-1.3,1.2-2.6,1.9-3.8c3.3-5.3,8.4-9.3,14.5-11c2.2-0.6,4.5-1,6.9-1
	C133.6,197.9,142.7,204.4,146.4,213.7L146.4,213.7z"/>
<path class="st1" d="M233.1,213.7h-46.8c0.5-1.3,1.2-2.6,1.9-3.8c3.3-5.3,8.4-9.3,14.5-11c2.2-0.6,4.5-1,6.9-1
	C220.3,197.9,229.4,204.4,233.1,213.7L233.1,213.7L233.1,213.7z"/>
<circle class="st3" cx="146.4" cy="25.1" r="25.1"/>
<path class="st1" d="M108.6,179.8c-18.4,0-33.3-14.9-33.3-33.3V61L55.4,20.8C50.3,10.5,40,4.5,29.2,4.5c-4.4,0-8.8,1-12.9,3
	C1.8,14.7-4.1,32.2,3,46.7l65.4,132.2l0,0c0,0.1,0.1,0.1,0.1,0.2c2.9,5.7,7.7,9.8,13.2,11.9c3.7,1.4,7.7,2,11.7,1.6
	c2.8-0.3,5.6-1.1,8.3-2.4l18.6-9.2c0.4-0.2,0.9-0.5,1.3-0.7v-0.5L108.6,179.8C108.6,179.7,108.6,179.8,108.6,179.8z M51.4,30.4
	l7.3,7.3l-7.3,7.3l-7.3-7.3C44.1,37.6,51.4,30.4,51.4,30.4z M42,13.7l7.3,7.3L42,28.2l-7.3-7.3L42,13.7z M15.8,20.9l7.3-7.3l7.3,7.3
	l-7.3,7.3C23.1,28.2,15.8,20.9,15.8,20.9z M25.2,37.6l7.3-7.3l7.3,7.3l-7.3,7.3C32.5,44.9,25.3,37.6,25.2,37.6z M34.7,54.3l7.3-7.3
	l7.3,7.3L42,61.6L34.7,54.3C34.7,54.3,34.7,54.3,34.7,54.3z M44.1,71.1l7.3-7.3l7.3,7.3l-7.3,7.3L44.1,71.1L44.1,71.1z M60.8,95
	l-7.3-7.3l7.3-7.3l7.3,7.3L60.8,95z M60.8,61.6l-7.3-7.3l7.3-7.3l7.3,7.3L60.8,61.6z"/>
<g id="D">
	<path class="st1" d="M446.9,119.1v49.7c0,5.1-0.8,10-2.4,14.5c-4.5,13.1-14.9,23.5-28,28c-4.6,1.6-9.5,2.4-14.5,2.4h-38v-30.4h37.2
		c8.5,0,15.3-6.9,15.3-15.3v-48.2c0-8.4-6.9-15.3-15.3-15.3H364V74.2h38c5.1,0,10,0.8,14.5,2.4c13.1,4.5,23.5,14.9,28,28
		C446,109.1,446.9,114,446.9,119.1L446.9,119.1L446.9,119.1z"/>
	<rect x="333.6" y="74.2" class="st1" width="30.4" height="139.5"/>
</g>
<g id="A">
	<path class="st1" d="M591.3,119.1v29h-30.4V115c0-5.8-4.7-10.5-10.5-10.5h-31.9c-5.8,0-10.5,4.7-10.5,10.5v33.1h-30.7v-29
		c0-5.1,0.8-10,2.4-14.5c4.5-13.1,14.9-23.5,28-28c4.6-1.6,9.5-2.4,14.5-2.4h24.1c5.1,0,10,0.8,14.5,2.4c13.1,4.5,23.5,14.9,28,28
		C590.4,109.1,591.3,114,591.3,119.1L591.3,119.1L591.3,119.1z"/>
	<rect x="477.3" y="178.5" class="st1" width="30.4" height="35.2"/>
	<rect x="560.9" y="178.5" class="st1" width="30.4" height="35.2"/>
	<rect x="477.3" y="148.1" class="st1" width="114" height="30.4"/>
</g>
<g id="I">
	<path class="st1" d="M724.3,74.2V89c0,8.6-7,15.5-15.5,15.5h-71.5c-8.6,0-15.5-7-15.5-15.5V74.2H724.3L724.3,74.2L724.3,74.2z"/>
	<path class="st1" d="M724.3,198.8v14.9H621.8v-14.9c0-8.6,7-15.5,15.5-15.5h71.5C717.3,183.3,724.3,190.2,724.3,198.8L724.3,198.8
		L724.3,198.8z"/>
	<rect x="657.7" y="104.6" class="st1" width="30.4" height="78.7"/>
</g>
<g id="K">
	<rect x="754.8" y="159.1" class="st1" width="30.4" height="54.6"/>
	<rect x="754.8" y="74.2" class="st1" width="30.4" height="54.6"/>
	<polygon class="st1" points="857,74.2 829.3,128.7 799,128.7 826.6,74.2 	"/>
	<polygon class="st1" points="857,74.2 829.4,128.7 829.3,128.7 	"/>
	<polygon class="st1" points="821.1,145 828.5,159.1 754.8,159.1 754.8,128.7 829.3,128.7 	"/>
	<polygon class="st1" points="856.9,213.7 826.5,213.7 798.9,159.1 828.5,159.1 	"/>
	<polygon class="st1" points="856.9,213.7 828.5,159.1 829.2,159.1 	"/>
	<polygon class="st1" points="856.9,213.7 828.5,159.1 829.2,159.1 	"/>
	<polygon class="st1" points="857,74.2 829.4,128.7 829.3,128.7 	"/>
</g>
<g id="U">
	<path class="st1" d="M903,74.2h14.8v85.1h-30.4V89.7C887.5,81.1,894.5,74.2,903,74.2L903,74.2L903,74.2z"/>
	<path class="st1" d="M1001.5,89.7v69.6h-30.7V74.2h15.2C994.5,74.2,1001.4,81.1,1001.5,89.7L1001.5,89.7L1001.5,89.7z"/>
	<path class="st1" d="M1001.5,159.3v9.5c0,24.8-20.1,44.9-44.9,44.9h-24.1c-24.8,0-44.9-20.1-44.9-44.9v-9.5h30.4v3.3
		c0,11.4,9.3,20.7,20.7,20.7H950c11.4,0,20.7-9.3,20.7-20.7v-3.3L1001.5,159.3L1001.5,159.3L1001.5,159.3z"/>
</g>
</svg>
