<?xml version="1.0" encoding="UTF-8"?><svg id="Calque_1" xmlns="http://www.w3.org/2000/svg" viewBox="0 0 667.88 139.53"><g id="D"><path d="M113.27,44.94v49.66c0,5.08-.84,9.98-2.41,14.54-4.48,13.12-14.86,23.5-27.98,27.98-4.56,1.56-9.45,2.41-14.54,2.41H30.39v-30.39h37.2c8.45,0,15.29-6.85,15.29-15.29v-48.15c0-8.45-6.85-15.29-15.29-15.29H30.39V.02h37.95c5.08,0,9.98.84,14.54,2.41,13.12,4.48,23.5,14.86,27.98,27.98,1.56,4.56,2.41,9.45,2.41,14.54h0Z" style="fill:#2a1300; stroke-width:0px;"/><rect y=".01" width="30.39" height="139.51" style="fill:#2a1300; stroke-width:0px;"/></g><g id="A"><path d="M257.69,44.94v28.97h-30.39v-33.05c0-5.78-4.69-10.47-10.47-10.47h-31.9c-5.78,0-10.47,4.69-10.47,10.47v33.05h-30.73v-28.97c0-5.08.84-9.98,2.41-14.54,4.48-13.12,14.86-23.5,27.98-27.98C178.68.86,183.57,0,188.66,0h24.1c5.08,0,9.98.84,14.54,2.41,13.12,4.48,23.5,14.86,27.98,27.98,1.56,4.56,2.4,9.45,2.4,14.54h.01Z" style="fill:#2a1300; stroke-width:0px;"/><rect x="143.74" y="104.3" width="30.39" height="35.22" style="fill:#2a1300; stroke-width:0px;"/><rect x="227.31" y="104.3" width="30.39" height="35.22" style="fill:#2a1300; stroke-width:0px;"/><rect x="143.74" y="73.91" width="113.96" height="30.39" style="fill:#2a1300; stroke-width:0px;"/></g><g id="I"><path d="M390.73.01v14.85c0,8.58-6.96,15.54-15.54,15.54h-71.48c-8.58,0-15.54-6.96-15.54-15.54V.01h102.56,0Z" style="fill:#2a1300; stroke-width:0px;"/><path d="M390.73,124.68v14.85h-102.56v-14.85c0-8.58,6.96-15.54,15.54-15.54h71.48c8.58,0,15.54,6.95,15.54,15.54h0Z" style="fill:#2a1300; stroke-width:0px;"/><rect x="324.08" y="30.4" width="30.39" height="78.73" style="fill:#2a1300; stroke-width:0px;"/></g><g id="K"><rect x="421.19" y="84.96" width="30.39" height="54.56" style="fill:#2a1300; stroke-width:0px;"/><rect x="421.19" y=".01" width="30.39" height="54.56" style="fill:#2a1300; stroke-width:0px;"/><polygon points="523.44 .01 495.74 54.57 465.4 54.57 493.05 .01 523.44 .01" style="fill:#2a1300; stroke-width:0px;"/><polygon points="523.44 .01 495.79 54.57 495.74 54.57 523.44 .01" style="fill:#2a1300; stroke-width:0px;"/><polygon points="487.5 70.81 494.88 84.96 421.19 84.96 421.19 54.57 495.74 54.57 487.5 70.81" style="fill:#2a1300; stroke-width:0px;"/><polygon points="523.32 139.53 492.93 139.53 465.28 84.96 494.88 84.96 523.32 139.53" style="fill:#2a1300; stroke-width:0px;"/><polygon points="523.32 139.53 494.88 84.96 495.67 84.96 523.32 139.53" style="fill:#2a1300; stroke-width:0px;"/><polygon points="523.32 139.53 494.88 84.96 495.67 84.96 523.32 139.53" style="fill:#2a1300; stroke-width:0px;"/><polygon points="523.44 .01 495.79 54.57 495.74 54.57 523.44 .01" style="fill:#2a1300; stroke-width:0px;"/></g><g id="U"><path d="M569.45.01h14.85v85.11h-30.39V15.56c0-8.58,6.96-15.54,15.54-15.54h0Z" style="fill:#2a1300; stroke-width:0px;"/><path d="M667.87,15.55v69.56h-30.74V0h15.19c8.58,0,15.54,6.96,15.54,15.54h.01Z" style="fill:#2a1300; stroke-width:0px;"/><path d="M667.87,85.12v9.48c0,24.81-20.12,44.93-44.93,44.93h-24.1c-24.81,0-44.93-20.12-44.93-44.93v-9.48h30.39v3.3c0,11.44,9.28,20.72,20.72,20.72h11.4c11.44,0,20.72-9.28,20.72-20.72v-3.3h30.74-.01Z" style="fill:#2a1300; stroke-width:0px;"/></g></svg>